nColumns=28
nRows=48
DataType=double
version=3
OpenSimVersion=4.1
endheader
time	ground_force_1_vx	ground_force_1_vy	ground_force_1_vz	ground_force_1_px	ground_force_1_py	ground_force_1_pz	ground_force_1_mx	ground_force_1_my	ground_force_1_mz	ground_force_2_vx	ground_force_2_vy	ground_force_2_vz	ground_force_2_px	ground_force_2_py	ground_force_2_pz	ground_force_2_mx	ground_force_2_my	ground_force_2_mz	ground_force_3_vx	ground_force_3_vy	ground_force_3_vz	ground_force_3_px	ground_force_3_py	ground_force_3_pz	ground_force_3_mx	ground_force_3_my	ground_force_3_mz
13.3	0	0	0	0	0	0	0	0	0	-7.02687	34.1689	3.22811	-0.30817	0.006	-0.62824	0	-0.784788	0	0	0	0	0	0	0	0	0	0
13.31	0	0	0	0	0	0	0	0	0	-7.12552	34.567	3.06096	-0.306974	0.006	-0.629607	0	-0.781829	0	0	0	0	0	0	0	0	0	0
13.32	0	0	0	0	0	0	0	0	0	-7.34791	34.7369	2.7869	-0.305826	0.006	-0.628486	0	-0.824046	0	0	0	0	0	0	0	0	0	0
13.33	0	0	0	0	0	0	0	0	0	-7.87115	34.8081	2.56529	-0.306114	0.006	-0.627958	0	-0.895533	0	0	0	0	0	0	0	0	0	0
13.34	0	0	0	0	0	0	0	0	0	-8.56505	34.6082	2.4355	-0.307122	0.006	-0.628442	0	-0.926165	0	0	0	0	0	0	0	0	0	0
13.35	0	0	0	0	0	0	0	0	0	-9.32231	33.9729	2.44023	-0.306643	0.006	-0.62804	0	-0.997123	0	0	0	0	0	0	0	0	0	0
13.36	0	0	0	0	0	0	0	0	0	-10.0192	33.221	2.51772	-0.306081	0.006	-0.624847	0	-1.13058	0	0	0	0	0	0	0	0	0	0
13.37	0	0	0	0	0	0	0	0	0	-10.5844	32.7042	2.64647	-0.306711	0.006	-0.622217	0	-1.23876	0	0	0	0	0	0	0	0	0	0
13.38	0	0	0	0	0	0	0	0	0	-10.8557	32.4702	2.76407	-0.306284	0.006	-0.621559	0	-1.26824	0	0	0	0	0	0	0	0	0	0
13.39	0	0	0	0	0	0	0	0	0	-10.9898	32.1699	2.75398	-0.305751	0.006	-0.6204	0	-1.29996	0	0	0	0	0	0	0	0	0	0
13.4	0	0	0	0	0	0	0	0	0	-11.1109	32.0029	2.65971	-0.306045	0.006	-0.619672	0	-1.33643	0	0	0	0	0	0	0	0	0	0
13.41	0	0	0	0	0	0	0	0	0	-11.2987	32.313	2.41328	-0.305937	0.006	-0.621815	0	-1.37294	0	0	0	0	0	0	0	0	0	0
13.42	0	0	0	0	0	0	0	0	0	-11.5984	32.8459	2.18733	-0.306616	0.006	-0.622488	0	-1.42363	0	0	0	0	0	0	0	0	0	0
13.43	0	0	0	0	0	0	0	0	0	-11.9674	33.3017	2.17508	-0.307998	0.006	-0.622403	0	-1.46039	0	0	0	0	0	0	0	0	0	0
13.44	0	0	0	0	0	0	0	0	0	-12.254	33.6672	2.28894	-0.308151	0.006	-0.624009	0	-1.45381	0	0	0	0	0	0	0	0	0	0
13.45	0	0	0	0	0	0	0	0	0	-12.5576	33.678	2.56774	-0.310193	0.006	-0.623647	0	-1.44757	0	0	0	0	0	0	0	0	0	0
13.46	0	0	0	0	0	0	0	0	0	-12.9601	33.409	2.86164	-0.311131	0.006	-0.621872	0	-1.50383	0	0	0	0	0	0	0	0	0	0
13.47	0	0	0	0	0	0	0	0	0	-13.3322	33.2683	3.03165	-0.310197	0.006	-0.62123	0	-1.55124	0	0	0	0	0	0	0	0	0	0
13.48	0	0	0	0	0	0	0	0	0	-13.4647	33.3642	3.17414	-0.308719	0.006	-0.622065	0	-1.55515	0	0	0	0	0	0	0	0	0	0
13.49	0	0	0	0	0	0	0	0	0	-13.4815	33.4254	3.32731	-0.308724	0.006	-0.621943	0	-1.5579	0	0	0	0	0	0	0	0	0	0
13.5	0	0	0	0	0	0	0	0	0	-13.4975	33.4372	3.40143	-0.308594	0.006	-0.622531	0	-1.55992	0	0	0	0	0	0	0	0	0	0
13.51	0	0	0	0	0	0	0	0	0	-13.5402	33.313	3.3533	-0.309399	0.006	-0.622433	0	-1.56718	0	0	0	0	0	0	0	0	0	0
13.52	0	0	0	0	0	0	0	0	0	-13.6696	33.1738	3.20035	-0.311192	0.006	-0.621388	0	-1.58748	0	0	0	0	0	0	0	0	0	0
13.53	0	0	0	0	0	0	0	0	0	-13.8966	33.1826	3.08263	-0.312091	0.006	-0.62203	0	-1.61771	0	0	0	0	0	0	0	0	0	0
13.54	0	0	0	0	0	0	0	0	0	-14.0878	33.1264	3.13725	-0.311134	0.006	-0.622419	0	-1.63208	0	0	0	0	0	0	0	0	0	0
13.55	0	0	0	0	0	0	0	0	0	-14.2202	33.0089	3.21823	-0.309333	0.006	-0.622005	0	-1.63261	0	0	0	0	0	0	0	0	0	0
13.56	0	0	0	0	0	0	0	0	0	-14.4503	32.7903	3.30378	-0.307272	0.006	-0.621356	0	-1.69174	0	0	0	0	0	0	0	0	0	0
13.57	0	0	0	0	0	0	0	0	0	-14.673	32.6654	3.46542	-0.307119	0.006	-0.620849	0	-1.75625	0	0	0	0	0	0	0	0	0	0
13.58	0	0	0	0	0	0	0	0	0	-14.7384	32.7774	3.57858	-0.306205	0.006	-0.622255	0	-1.77137	0	0	0	0	0	0	0	0	0	0
13.59	0	0	0	0	0	0	0	0	0	-14.7329	32.7765	3.6015	-0.305278	0.006	-0.623819	0	-1.75541	0	0	0	0	0	0	0	0	0	0
13.6	0	0	0	0	0	0	0	0	0	-14.6775	32.5482	3.49826	-0.304675	0.006	-0.62304	0	-1.71912	0	0	0	0	0	0	0	0	0	0
13.61	0	0	0	0	0	0	0	0	0	-14.6251	32.3362	3.3962	-0.303256	0.006	-0.621411	0	-1.71672	0	0	0	0	0	0	0	0	0	0
13.62	0	0	0	0	0	0	0	0	0	-14.6684	32.2498	3.31812	-0.302934	0.006	-0.620706	0	-1.75349	0	0	0	0	0	0	0	0	0	0
13.63	0	0	0	0	0	0	0	0	0	-14.6605	31.9995	3.27313	-0.302968	0.006	-0.619107	0	-1.77898	0	0	0	0	0	0	0	0	0	0
13.64	0	0	0	0	0	0	0	0	0	-14.696	31.3806	3.19088	-0.302773	0.006	-0.614751	0	-1.82635	0	0	0	0	0	0	0	0	0	0
13.65	0	0	0	0	0	0	0	0	0	-14.7649	30.6059	3.16649	-0.303339	0.006	-0.610768	0	-1.88759	0	0	0	0	0	0	0	0	0	0
13.66	0	0	0	0	0	0	0	0	0	-14.6961	29.7863	3.20904	-0.30455	0.006	-0.608696	0	-1.92306	0	0	0	0	0	0	0	0	0	0
13.67	0	0	0	0	0	0	0	0	0	-14.4625	28.8863	3.23403	-0.306091	0.006	-0.60599	0	-1.90656	0	0	0	0	0	0	0	0	0	0
13.68	0	0	0	0	0	0	0	0	0	-14.2554	27.836	3.21588	-0.309371	0.006	-0.600555	0	-1.90369	0	0	0	0	0	0	0	0	0	0
13.69	0	0	0	0	0	0	0	0	0	-14.1978	26.6801	3.16865	-0.31226	0.006	-0.59175	0	-2.00121	0	0	0	0	0	0	0	0	0	0
13.7	0	0	0	0	0	0	0	0	0	-14.1931	25.614	3.1527	-0.312794	0.006	-0.584188	0	-2.10749	0	0	0	0	0	0	0	0	0	0
13.71	0	0	0	0	0	0	0	0	0	-14.1476	24.4969	3.12228	-0.315904	0.006	-0.57891	0	-2.16232	0	0	0	0	0	0	0	0	0	0
13.72	0	0	0	0	0	0	0	0	0	-14.0113	23.2441	2.98087	-0.321111	0.006	-0.571146	0	-2.23756	0	0	0	0	0	0	0	0	0	0
13.73	0	0	0	0	0	0	0	0	0	-13.8044	22.2116	2.77566	-0.326809	0.006	-0.562224	0	-2.32722	0	0	0	0	0	0	0	0	0	0
13.74	0	0	0	0	0	0	0	0	0	-13.6134	21.3551	2.52045	-0.328722	0.006	-0.555582	0	-2.41228	0	0	0	0	0	0	0	0	0	0
13.75	0	0	0	0	0	0	0	0	0	-13.4135	20.4927	2.22626	-0.330851	0.006	-0.54914	0	-2.48448	0	0	0	0	0	0	0	0	0	0
13.76	0	0	0	0	0	0	0	0	0	0	0	0	0	0	0	0	0	0	0	0	0	0	0	0	0	0	0
13.77	0	0	0	0	0	0	0	0	0	0	0	0	0	0	0	0	0	0	0	0	0	0	0	0	0	0	0
